<svg width="38" height="38" viewBox="0 0 38 38" fill="none" xmlns="http://www.w3.org/2000/svg">
<path d="M29.6875 4.6875H7.8125C6.08594 4.6875 4.6875 6.08594 4.6875 7.8125V29.6875C4.6875 31.4141 6.08594 32.8125 7.8125 32.8125H19.7203V21.9359H16.0594V17.6781H19.7203V14.5453C19.7203 10.9141 21.9406 8.93437 25.1812 8.93437C26.2734 8.93125 27.3641 8.9875 28.45 9.09844V12.8953H26.2188C24.4531 12.8953 24.1094 13.7297 24.1094 14.9609V17.6719H28.3281L27.7797 21.9297H24.0844V32.8125H29.6875C31.4141 32.8125 32.8125 31.4141 32.8125 29.6875V7.8125C32.8125 6.08594 31.4141 4.6875 29.6875 4.6875Z" fill="black"/>
</svg>
