<svg width="38" height="38" viewBox="0 0 38 38" fill="none" xmlns="http://www.w3.org/2000/svg">
<path d="M12.5 4.6875C8.18594 4.6875 4.6875 8.18594 4.6875 12.5V25C4.6875 29.3141 8.18594 32.8125 12.5 32.8125H25C29.3141 32.8125 32.8125 29.3141 32.8125 25V12.5C32.8125 8.18594 29.3141 4.6875 25 4.6875H12.5ZM28.125 7.8125C28.9875 7.8125 29.6875 8.5125 29.6875 9.375C29.6875 10.2375 28.9875 10.9375 28.125 10.9375C27.2625 10.9375 26.5625 10.2375 26.5625 9.375C26.5625 8.5125 27.2625 7.8125 28.125 7.8125ZM18.75 10.9375C23.0641 10.9375 26.5625 14.4359 26.5625 18.75C26.5625 23.0641 23.0641 26.5625 18.75 26.5625C14.4359 26.5625 10.9375 23.0641 10.9375 18.75C10.9375 14.4359 14.4359 10.9375 18.75 10.9375ZM18.75 14.0625C17.5068 14.0625 16.3145 14.5564 15.4354 15.4354C14.5564 16.3145 14.0625 17.5068 14.0625 18.75C14.0625 19.9932 14.5564 21.1855 15.4354 22.0646C16.3145 22.9436 17.5068 23.4375 18.75 23.4375C19.9932 23.4375 21.1855 22.9436 22.0646 22.0646C22.9436 21.1855 23.4375 19.9932 23.4375 18.75C23.4375 17.5068 22.9436 16.3145 22.0646 15.4354C21.1855 14.5564 19.9932 14.0625 18.75 14.0625Z" fill="black"/>
</svg>
