<svg width="38" height="38" viewBox="0 0 38 38" fill="none" xmlns="http://www.w3.org/2000/svg">
<path d="M29.6875 4.6875H7.8125C6.08594 4.6875 4.6875 6.08594 4.6875 7.8125V29.6875C4.6875 31.4141 6.08594 32.8125 7.8125 32.8125H29.6875C31.4141 32.8125 32.8125 31.4141 32.8125 29.6875V7.8125C32.8125 6.08594 31.4141 4.6875 29.6875 4.6875ZM27.9797 24.5063L25.2688 24.5438C25.2688 24.5438 24.6844 24.6578 23.9187 24.1297C22.9047 23.4328 21.9484 21.6203 21.2031 21.8562C20.4469 22.0969 20.4703 23.7281 20.4703 23.7281C20.4703 23.7281 20.4766 24.0156 20.3031 24.2031C20.1156 24.4047 19.7484 24.3844 19.7484 24.3844H18.5344C18.5344 24.3844 15.8563 24.6063 13.4953 22.1453C10.9234 19.4625 8.65156 14.1672 8.65156 14.1672C8.65156 14.1672 8.51875 13.8328 8.66094 13.6625C8.82188 13.4734 9.25625 13.4687 9.25625 13.4687L12.1578 13.4547C12.1578 13.4547 12.4312 13.5031 12.6281 13.6469C12.7891 13.7656 12.8813 13.9891 12.8813 13.9891C12.8813 13.9891 13.35 15.1781 13.9719 16.2547C15.1844 18.3531 15.7484 18.8125 16.1594 18.5875C16.7594 18.2594 16.5797 15.6219 16.5797 15.6219C16.5797 15.6219 16.5906 14.6641 16.2781 14.2375C16.0344 13.9047 15.5766 13.8062 15.375 13.7812C15.2109 13.7594 15.4781 13.3797 15.8266 13.2078C16.3484 12.9531 17.2719 12.9375 18.3609 12.9484C19.2094 12.9578 19.4547 13.0094 19.7859 13.0906C20.7875 13.3328 20.4469 14.2672 20.4469 16.5094C20.4469 17.2281 20.3172 18.2375 20.8344 18.5703C21.0578 18.7141 21.6016 18.5922 22.9594 16.2797C23.6047 15.1828 24.0875 13.8938 24.0875 13.8938C24.0875 13.8938 24.1937 13.6641 24.3578 13.5656C24.5266 13.4641 24.7531 13.4953 24.7531 13.4953L27.8078 13.4766C27.8078 13.4766 28.725 13.3656 28.875 13.7828C29.0312 14.2188 28.5328 15.2359 27.2844 16.9C25.2359 19.6344 25.0078 19.3797 26.7094 20.9609C28.3344 22.4719 28.6703 23.2063 28.7266 23.2984C29.3984 24.4172 27.9797 24.5063 27.9797 24.5063Z" fill="black"/>
</svg>
